<svg width="161" height="134" viewBox="0 0 161 134" fill="none" xmlns="http://www.w3.org/2000/svg">
	<path d="M144.189 122.149H118.374C118.243 122.145 118.112 122.166 117.989 122.214C117.866 122.261 117.754 122.332 117.66 122.423C117.565 122.514 117.49 122.623 117.439 122.744C117.387 122.864 117.361 122.994 117.361 123.125C117.361 123.256 117.387 123.386 117.439 123.507C117.49 123.627 117.565 123.736 117.66 123.827C117.754 123.919 117.866 123.99 117.989 124.037C118.112 124.084 118.243 124.106 118.374 124.101H144.189C144.443 124.093 144.684 123.986 144.861 123.804C145.037 123.622 145.136 123.378 145.136 123.125C145.136 122.872 145.037 122.628 144.861 122.446C144.684 122.264 144.443 122.158 144.189 122.149Z" fill="black" />
	<path d="M157.057 13.6716H113.669V17.2846C114.225 18.1195 115.075 18.6198 115.992 18.6198H146.572C147.662 18.6198 148.661 17.9131 149.179 16.7753L149.325 16.4531H157.057C157.915 16.4531 158.614 17.3119 158.614 18.3668V128.488C158.614 129.543 157.915 130.402 157.057 130.402H113.155C112.416 132.055 110.953 133.183 109.274 133.183H157.055C159.23 133.183 160.999 131.077 160.999 128.488V18.3668C161 15.7782 159.231 13.6716 157.057 13.6716Z" fill="black" />
	<path d="M119.437 85.1285L118.789 88.34C118.777 88.3941 118.779 88.4502 118.795 88.5034C118.81 88.5566 118.838 88.6053 118.876 88.6453C118.914 88.6853 118.962 88.7154 119.015 88.733C119.067 88.7505 119.123 88.755 119.178 88.7461L129.292 87.1716L129.185 98.2261C129.184 98.271 129.192 98.3156 129.209 98.3572C129.226 98.3989 129.251 98.4368 129.282 98.4689C129.314 98.5012 129.351 98.527 129.393 98.5445C129.434 98.5621 129.479 98.5711 129.524 98.571C129.614 98.571 129.701 98.5351 129.765 98.4713C129.829 98.4075 129.865 98.3209 129.865 98.2306L129.979 86.7734C129.98 86.7241 129.971 86.6751 129.951 86.6299C129.931 86.5846 129.902 86.5442 129.865 86.5113C129.828 86.4787 129.783 86.4546 129.735 86.4409C129.687 86.4272 129.637 86.4241 129.588 86.4319L119.562 87.9917L120.151 85.0718C120.163 85.0135 120.16 84.953 120.141 84.8965C120.122 84.84 120.089 84.7893 120.044 84.7497L113.67 79.0278V79.949L119.437 85.1285Z" fill="#4360FA" />
	<path d="M114.354 67.9834C114.43 68.003 114.511 67.9954 114.583 67.9621C114.654 67.9288 114.712 67.8718 114.746 67.8008L116.465 64.2763L125.389 73.1437C125.441 73.197 125.508 73.232 125.582 73.2435C125.655 73.255 125.73 73.2424 125.796 73.2075C125.861 73.1726 125.914 73.1174 125.945 73.0502C125.976 72.983 125.984 72.9075 125.969 72.8352L122.583 55.6096L127.395 57.5664C127.478 57.6008 127.571 57.6012 127.655 57.5674C127.738 57.5336 127.805 57.4685 127.84 57.386L131.281 49.4851L134.724 57.386C134.759 57.4685 134.826 57.5336 134.909 57.5674C134.993 57.6012 135.086 57.6008 135.169 57.5664L139.981 55.6096L136.595 72.8352C136.58 72.9075 136.588 72.983 136.619 73.0502C136.65 73.1174 136.703 73.1726 136.768 73.2075C136.834 73.2424 136.909 73.255 136.982 73.2435C137.056 73.232 137.123 73.197 137.175 73.1437L146.099 64.2763L147.818 67.8008C147.852 67.8716 147.909 67.9284 147.981 67.9617C148.052 67.995 148.133 68.0027 148.209 67.9834L152.925 66.8059L151.12 71.8709C151.096 71.9388 151.094 72.0126 151.114 72.0817C151.134 72.1508 151.176 72.2117 151.234 72.2555L154.023 74.4256L142.525 84.7485C142.478 84.7881 142.443 84.8397 142.423 84.8979C142.403 84.956 142.399 85.0184 142.411 85.0786L143.001 87.9985L132.975 86.4387C132.957 86.437 132.94 86.437 132.922 86.4387C132.876 86.4387 132.832 86.4477 132.79 86.4651C132.748 86.4826 132.71 86.5081 132.678 86.5404C132.646 86.5726 132.621 86.6107 132.605 86.6527C132.588 86.6946 132.58 86.7395 132.58 86.7847L132.694 98.2419C132.694 98.3322 132.73 98.4187 132.794 98.4826C132.858 98.5464 132.945 98.5822 133.036 98.5822C133.081 98.582 133.126 98.5729 133.167 98.5554C133.209 98.5379 133.246 98.5123 133.278 98.4801C133.31 98.4481 133.335 98.4102 133.351 98.3685C133.368 98.3268 133.377 98.2823 133.376 98.2374L133.269 87.1828L143.381 88.7574C143.436 88.7665 143.492 88.7622 143.545 88.7447C143.598 88.7272 143.646 88.6972 143.684 88.6571C143.723 88.6171 143.751 88.5683 143.766 88.515C143.781 88.4617 143.783 88.4055 143.772 88.3512L143.124 85.1398L154.782 74.6717C154.819 74.6385 154.849 74.5975 154.869 74.5516C154.888 74.5058 154.898 74.4561 154.896 74.4063C154.895 74.3562 154.882 74.3071 154.86 74.2624C154.837 74.2177 154.805 74.1785 154.765 74.1477L151.847 71.8789L153.783 66.4452C153.804 66.3869 153.809 66.3238 153.797 66.2628C153.786 66.2018 153.757 66.1452 153.715 66.0991C153.673 66.0531 153.62 66.0193 153.56 66.0015C153.5 65.9838 153.437 65.9826 153.376 65.9982L148.308 67.2631L146.51 63.5457C146.486 63.4962 146.451 63.4531 146.407 63.42C146.363 63.387 146.312 63.3649 146.258 63.3558C146.204 63.3467 146.148 63.3507 146.096 63.3676C146.043 63.3845 145.996 63.4136 145.957 63.4527L137.489 71.8675L140.781 55.1184C140.794 55.0577 140.789 54.9948 140.769 54.9364C140.748 54.878 140.712 54.8263 140.664 54.787C140.615 54.7476 140.558 54.7221 140.496 54.7132C140.435 54.7042 140.372 54.7121 140.314 54.7361L135.224 56.8064L131.597 48.4868V48.4777V48.4709V48.4641L131.578 48.4346V48.4278L131.571 48.4176L131.561 48.4074L131.551 48.396V48.3904H131.544L131.519 48.3688L131.51 48.362H131.503H131.498L131.481 48.3518H131.473H131.466H131.457H131.45H131.442H131.433H131.426H131.417H131.41H131.4H131.39H131.378H131.281H131.27H131.26H131.25H131.243H131.234H131.226H131.218H131.21H131.202L131.171 48.3688H131.164L131.154 48.3745C131.136 48.3866 131.12 48.4007 131.105 48.4165V48.4221V48.4278L131.096 48.438C131.096 48.4407 131.096 48.4433 131.096 48.446V48.4528L131.076 48.4834V48.4902V48.497V48.5061L127.454 56.8222L122.363 54.752C122.306 54.728 122.243 54.7201 122.182 54.729C122.12 54.738 122.062 54.7635 122.014 54.8029C121.966 54.8422 121.93 54.8939 121.909 54.9523C121.888 55.0107 121.884 55.0736 121.897 55.1343L125.189 71.8834L116.72 63.4686C116.682 63.4295 116.634 63.4003 116.582 63.3835C116.53 63.3666 116.474 63.3626 116.42 63.3717C116.366 63.3808 116.315 63.4029 116.271 63.4359C116.227 63.469 116.192 63.5121 116.168 63.5616L114.36 67.2676L113.78 67.1224V67.828L114.354 67.9834Z" fill="#4360FA" />
	<path d="M42.6255 122.149H16.8116C16.6802 122.145 16.5492 122.166 16.4264 122.214C16.3037 122.261 16.1917 122.332 16.0971 122.423C16.0025 122.514 15.9273 122.623 15.8759 122.744C15.8246 122.864 15.7981 122.994 15.7981 123.125C15.7981 123.256 15.8246 123.386 15.8759 123.507C15.9273 123.627 16.0025 123.736 16.0971 123.827C16.1917 123.919 16.3037 123.99 16.4264 124.037C16.5492 124.084 16.6802 124.106 16.8116 124.101H42.6255C42.757 124.106 42.888 124.084 43.0108 124.037C43.1335 123.99 43.2455 123.919 43.3401 123.827C43.4347 123.736 43.5099 123.627 43.5613 123.507C43.6126 123.386 43.6391 123.256 43.6391 123.125C43.6391 122.994 43.6126 122.864 43.5613 122.744C43.5099 122.623 43.4347 122.514 43.3401 122.423C43.2455 122.332 43.1335 122.261 43.0108 122.214C42.888 122.166 42.757 122.145 42.6255 122.149Z" fill="black" />
	<path d="M47.9463 130.402H3.94335C3.08501 130.402 2.38718 129.543 2.38718 128.488V18.3668C2.3906 17.3119 3.08501 16.4486 3.94335 16.4486H11.6752L11.8209 16.7696C12.34 17.904 13.3384 18.6153 14.4278 18.6153H45.0093C45.9826 18.6153 46.883 18.0481 47.4329 17.1179V13.6716H3.94676C1.76904 13.6716 0 15.7782 0 18.3668V128.488C0 131.077 1.76904 133.183 3.94335 133.183H51.827C50.1479 133.183 48.6862 132.055 47.9463 130.402Z" fill="black" />
	<path d="M40.9578 84.7508C40.9135 84.7906 40.8804 84.8413 40.8618 84.8978C40.8432 84.9543 40.8398 85.0147 40.852 85.073L41.4371 87.9929L31.4194 86.4331C31.4016 86.4314 31.3836 86.4314 31.3659 86.4331C31.3205 86.4331 31.2756 86.4421 31.2338 86.4595C31.192 86.477 31.1541 86.5026 31.1223 86.5348C31.0905 86.567 31.0655 86.6052 31.0487 86.6471C31.0319 86.689 31.0236 86.7339 31.0243 86.7791L31.1382 98.2363C31.1382 98.3266 31.1742 98.4131 31.2382 98.477C31.3023 98.5408 31.3891 98.5766 31.4797 98.5766C31.5248 98.5767 31.5694 98.5678 31.6108 98.5502C31.6523 98.5327 31.6898 98.5069 31.721 98.4745C31.7528 98.4426 31.7779 98.4047 31.7949 98.363C31.8119 98.3214 31.8205 98.2768 31.8201 98.2318L31.7131 87.1772L41.8253 88.7518C41.8801 88.7599 41.9361 88.7549 41.9885 88.7371C42.041 88.7193 42.0885 88.6894 42.127 88.6497C42.1652 88.6098 42.1931 88.5614 42.2084 88.5084C42.2237 88.4555 42.2258 88.3996 42.2146 88.3457L41.5669 85.1342L47.433 79.8605V78.9382L40.9578 84.7508Z" fill="#4360FA" />
	<path d="M46.7498 67.2517L44.9421 63.5457C44.9185 63.4964 44.8833 63.4535 44.8396 63.4206C44.7959 63.3877 44.7449 63.3657 44.6908 63.3566C44.6368 63.3475 44.5813 63.3514 44.5292 63.3682C44.477 63.3849 44.4296 63.4139 44.3911 63.4527L35.9227 71.8675L39.2137 55.1184C39.2262 55.0577 39.2219 54.9948 39.2012 54.9364C39.1804 54.878 39.1441 54.8263 39.0961 54.787C39.048 54.7476 38.9901 54.7221 38.9286 54.7132C38.8671 54.7042 38.8043 54.7121 38.747 54.7361L33.6562 56.8064L30.0327 48.4868C30.0327 48.4868 30.0327 48.4811 30.0327 48.4777V48.4709V48.4641L30.0156 48.4346L30.0099 48.4278L30.0031 48.4176L29.9951 48.4074L29.9849 48.396L29.9792 48.3904H29.9735L29.9473 48.3688L29.9382 48.362H29.9314H29.9245L29.9086 48.3518H29.9006H29.8938H29.8847H29.8779H29.8688H29.8608H29.8528H29.8437H29.838H29.8278H29.8164H29.805H29.7071H29.6957H29.6843H29.6787H29.6684H29.6627H29.6525H29.6456H29.6377H29.6286H29.6206L29.5887 48.3688H29.583L29.5739 48.3745C29.5563 48.3869 29.5399 48.401 29.525 48.4165V48.4221L29.5193 48.4278L29.5113 48.438L29.5056 48.446V48.4528L29.4874 48.4834V48.4902V48.497C29.4874 48.497 29.4874 48.497 29.4874 48.5061L25.8651 56.8222L20.7742 54.752C20.7169 54.728 20.6541 54.7201 20.5926 54.729C20.5311 54.738 20.4732 54.7635 20.4252 54.8029C20.3771 54.8422 20.3408 54.8939 20.3201 54.9523C20.2993 55.0107 20.295 55.0736 20.3075 55.1343L23.5986 71.8834L15.1302 63.4686C15.0916 63.4298 15.0442 63.4008 14.9921 63.3841C14.9399 63.3673 14.8845 63.3634 14.8304 63.3725C14.7764 63.3816 14.7254 63.4036 14.6816 63.4365C14.6379 63.4694 14.6028 63.5123 14.5792 63.5616L12.7714 67.2676L7.62025 65.9869C7.55982 65.971 7.49616 65.9719 7.43622 65.9896C7.37628 66.0073 7.32235 66.041 7.28032 66.0871C7.23828 66.1332 7.20975 66.1899 7.19783 66.251C7.18591 66.3122 7.19106 66.3754 7.21271 66.4339L9.14796 71.8675L6.23143 74.1363C6.19162 74.1669 6.15907 74.2058 6.1361 74.2504C6.11314 74.295 6.10033 74.344 6.09859 74.3941C6.09685 74.4441 6.10622 74.494 6.12604 74.54C6.14585 74.586 6.17562 74.6271 6.21322 74.6604L17.8725 85.1285L17.2248 88.3399C17.2136 88.3939 17.2157 88.4497 17.231 88.5027C17.2463 88.5556 17.2742 88.6041 17.3124 88.6439C17.3509 88.6836 17.3984 88.7136 17.4509 88.7313C17.5033 88.7491 17.5593 88.7541 17.6141 88.746L27.7263 87.1715L27.6193 98.226C27.6189 98.271 27.6275 98.3156 27.6445 98.3573C27.6615 98.399 27.6866 98.4369 27.7184 98.4688C27.7496 98.5012 27.7871 98.5269 27.8285 98.5445C27.87 98.562 27.9146 98.571 27.9597 98.5709C28.0503 98.5709 28.1371 98.535 28.2012 98.4712C28.2652 98.4074 28.3012 98.3208 28.3012 98.2306L28.4151 86.7733C28.4157 86.7237 28.4054 86.6744 28.385 86.6292C28.3645 86.5839 28.3343 86.5436 28.2966 86.5112C28.2588 86.4787 28.2144 86.4549 28.1664 86.4414C28.1185 86.4279 28.0681 86.4251 28.0189 86.433L17.9932 87.9928L18.5851 85.0786C18.5973 85.0203 18.5939 84.9599 18.5753 84.9034C18.5567 84.8469 18.5236 84.7962 18.4793 84.7564L6.98162 74.4335L9.76838 72.26C9.82576 72.2162 9.8677 72.1553 9.88816 72.0862C9.90862 72.0171 9.90654 71.9433 9.88222 71.8755L8.07447 66.8059L12.7908 67.9834C12.8673 68.003 12.9483 67.9954 13.0199 67.9621C13.0916 67.9288 13.1494 67.8718 13.1835 67.8008L14.9025 64.2763L23.8251 73.1437C23.8767 73.197 23.9443 73.232 24.0177 73.2435C24.0911 73.255 24.1662 73.2424 24.2318 73.2075C24.2973 73.1726 24.3496 73.1174 24.3808 73.0502C24.4119 72.983 24.4203 72.9075 24.4045 72.8352L21.019 55.6096L25.8321 57.5664C25.9151 57.6008 26.0085 57.6012 26.0918 57.5674C26.1752 57.5336 26.2418 57.4685 26.2772 57.386L29.7185 49.4851L33.1598 57.386C33.1952 57.4685 33.2618 57.5336 33.3452 57.5674C33.4285 57.6012 33.5219 57.6008 33.6049 57.5664L38.418 55.6096L35.0325 72.8352C35.0167 72.9075 35.0251 72.983 35.0562 73.0502C35.0874 73.1174 35.1397 73.1726 35.2052 73.2075C35.2708 73.2424 35.3459 73.255 35.4193 73.2435C35.4927 73.232 35.5603 73.197 35.6119 73.1437L44.5345 64.2763L46.2535 67.8008C46.2876 67.8718 46.3454 67.9288 46.4171 67.9621C46.4887 67.9954 46.5697 68.003 46.6462 67.9834L47.4328 67.7872V67.0816L46.7498 67.2517Z" fill="#4360FA" />
	<path d="M94.941 120.886H66.1673C65.8777 120.886 65.6 121.001 65.3953 121.205C65.1906 121.409 65.0756 121.686 65.0756 121.974C65.0756 122.263 65.1906 122.54 65.3953 122.744C65.6 122.948 65.8777 123.062 66.1673 123.062H94.941C95.2305 123.062 95.5082 122.948 95.7129 122.744C95.9177 122.54 96.0327 122.263 96.0327 121.974C96.0327 121.686 95.9177 121.409 95.7129 121.205C95.5082 121.001 95.2305 120.886 94.941 120.886Z" fill="black" />
	<path d="M113.669 79.9501L111.009 77.5679V127.956C111.009 129.132 110.232 130.089 109.275 130.089H104.649C104.889 130.291 105.192 130.404 105.506 130.407H113.155C113.496 129.635 113.671 128.8 113.668 127.956L113.669 79.9501Z" fill="black" />
	<path d="M50.0887 127.95V77.4705L47.4329 79.8606V127.952C47.4301 128.795 47.605 129.631 47.9463 130.403H55.4938C55.8081 130.4 56.1113 130.287 56.351 130.084H51.827C50.8708 130.083 50.0887 129.127 50.0887 127.95Z" fill="black" />
	<path d="M50.0887 72.5856L49.6687 72.26C49.6113 72.2162 49.5694 72.1553 49.5489 72.0862C49.5284 72.0171 49.5305 71.9433 49.5548 71.8755L50.0887 70.3656V67.1235L47.4283 67.7872V78.937L50.0887 76.5491V72.5856Z" fill="black" />
	<path d="M113.238 16.4485H111.009V66.443L113.67 67.1066V17.2845C113.561 17.1223 113.466 16.9516 113.385 16.7741L113.238 16.4485Z" fill="black" />
	<path d="M50.0887 5.23177C50.0887 4.05655 50.8662 3.09913 51.8225 3.09913H60.448L60.6119 3.4576C61.1891 4.72697 62.3024 5.51423 63.5159 5.51423H97.5911C98.8046 5.51423 99.9179 4.72697 100.495 3.4576L100.658 3.09913H109.275C110.232 3.09913 111.009 4.05655 111.009 5.23177V13.6716H113.67V5.23177C113.67 2.34704 111.698 0 109.275 0H51.827C49.4045 0 47.4329 2.34704 47.4329 5.23177V13.6716H50.0887V5.23177Z" fill="black" />
	<path d="M111.009 70.6517L111.447 71.8711C111.472 71.939 111.474 72.0128 111.453 72.0819C111.433 72.151 111.391 72.2118 111.334 72.2557L111.01 72.5064V76.6412L113.671 79.0234V67.8123L111.01 67.1487L111.009 70.6517Z" fill="black" />
	<path d="M50.0887 66.4169V16.4485H47.7619L47.615 16.7707C47.5607 16.8896 47.4999 17.0055 47.4329 17.1178V67.0816L50.0887 66.4169Z" fill="black" />
	<path d="M101.799 130.083H59.2026C58.6528 131.889 57.1979 133.183 55.4938 133.183H105.506C103.802 133.183 102.347 131.889 101.799 130.083Z" fill="black" />
	<path d="M111.009 16.4486H113.238L113.385 16.7696C113.466 16.9471 113.561 17.1178 113.67 17.2801V13.6716H111.009V16.4486Z" fill="black" />
	<path d="M113.155 130.402H105.505C105.191 130.398 104.887 130.286 104.648 130.083H101.802C102.351 131.889 103.805 133.183 105.51 133.183H109.279C110.954 133.183 112.417 132.055 113.155 130.402Z" fill="black" />
	<path d="M111.447 71.8711L111.012 70.6516V72.5063L111.333 72.2602C111.392 72.2161 111.434 72.1544 111.455 72.0844C111.475 72.0143 111.473 71.9395 111.447 71.8711Z" fill="black" />
	<path d="M111.009 77.5622L113.67 79.9501V79.029L111.009 76.6411V77.5622Z" fill="black" />
	<path d="M113.67 67.8123V67.1067L111.009 66.4431V67.1487L113.67 67.8123Z" fill="black" />
	<path d="M59.2026 130.083H56.3498C56.1102 130.286 55.8069 130.398 55.4926 130.402H47.9452C48.6851 132.055 50.1468 133.183 51.8259 133.183H55.4926C57.1979 133.183 58.6528 131.889 59.2026 130.083Z" fill="black" />
	<path d="M47.615 16.7753L47.7619 16.4531H50.0887V13.6716H47.4329V17.1224C47.4999 17.0101 47.5607 16.8942 47.615 16.7753Z" fill="black" />
	<path d="M47.4329 78.9372V79.8594L50.0933 77.4704V76.5493L47.4329 78.9372Z" fill="black" />
	<path d="M49.6686 72.2601L50.0932 72.5902V70.3657L49.5559 71.871C49.5304 71.9394 49.5275 72.0141 49.5478 72.0841C49.5681 72.1542 49.6104 72.2159 49.6686 72.2601Z" fill="black" />
	<path d="M47.4329 67.7873L50.0933 67.1237V66.417L47.4329 67.0817V67.7873Z" fill="black" />
	<path d="M99.531 59.7094L97.5172 55.5848C97.4904 55.5303 97.4509 55.4829 97.4021 55.4466C97.3533 55.4103 97.2965 55.3861 97.2364 55.376C97.1763 55.3659 97.1147 55.3702 97.0566 55.3886C96.9986 55.4069 96.9457 55.4388 96.9025 55.4816L87.4653 64.8595L91.1331 46.1933C91.1475 46.1256 91.1432 46.0553 91.1205 45.9899C91.0978 45.9245 91.0578 45.8664 91.0045 45.822C90.9513 45.7776 90.8869 45.7485 90.8183 45.7377C90.7497 45.727 90.6795 45.735 90.6152 45.7611L84.9426 48.0684L80.9014 38.7959V38.7857V38.7789C80.9016 38.7763 80.9016 38.7736 80.9014 38.771L80.882 38.737V38.729L80.8741 38.7188L80.8638 38.7075C80.8606 38.7028 80.8568 38.6986 80.8524 38.695V38.6893L80.8456 38.6825L80.8171 38.6576L80.8069 38.6496H80.7989H80.7932H80.7864L80.7682 38.6394H80.7591H80.7511H80.742H80.734H80.7238H80.7147H80.7067H80.6965H80.6896H80.6771H80.6646H80.6589H80.6464H80.5325H80.52H80.5075H80.5018H80.4893H80.4825H80.4722H80.4642H80.4551H80.446H80.4381L80.4028 38.6576H80.3959L80.3857 38.6644C80.366 38.6784 80.3477 38.6944 80.3311 38.712V38.7188L80.3254 38.7245L80.3151 38.7358L80.3094 38.7438V38.7494V38.7562L80.2889 38.7914C80.2887 38.7941 80.2887 38.7967 80.2889 38.7994V38.8062V38.8164L76.1578 48.0684L70.4898 45.7611C70.4258 45.735 70.356 45.7266 70.2877 45.7369C70.2193 45.7472 70.1551 45.7757 70.1017 45.8194C70.0484 45.8632 70.0079 45.9205 69.9846 45.9853C69.9614 46.0501 69.9561 46.12 69.9695 46.1876L73.6385 64.8538L64.2048 55.4714C64.1615 55.4286 64.1087 55.3967 64.0506 55.3784C63.9925 55.36 63.9309 55.3557 63.8708 55.3658C63.8107 55.3759 63.7539 55.4001 63.7051 55.4364C63.6563 55.4727 63.6168 55.5201 63.59 55.5746L61.5762 59.7049L59.4418 59.1717V59.959L61.6912 60.5205C61.7766 60.5414 61.8665 60.5327 61.9462 60.4958C62.0259 60.4589 62.0906 60.396 62.1295 60.3174L64.0443 56.3891L73.988 66.2707C74.0461 66.3276 74.1208 66.3646 74.2014 66.3764C74.2819 66.3882 74.3642 66.3741 74.4362 66.3362C74.5082 66.2983 74.5663 66.2385 74.6019 66.1656C74.6376 66.0926 74.649 66.0102 74.6346 65.9304L70.8575 46.7366L76.2204 48.9169C76.3129 48.9542 76.4164 48.9541 76.5088 48.9166C76.6013 48.8791 76.6755 48.8072 76.7156 48.7161L80.5519 39.911L84.3871 48.7161C84.4272 48.8072 84.5014 48.8791 84.5938 48.9166C84.6863 48.9541 84.7898 48.9542 84.8823 48.9169L90.2452 46.7366L86.4726 65.9315C86.4582 66.0114 86.4696 66.0937 86.5053 66.1667C86.5409 66.2397 86.599 66.2994 86.671 66.3373C86.743 66.3752 86.8253 66.3893 86.9058 66.3775C86.9864 66.3658 87.0612 66.3287 87.1192 66.2718L97.063 56.3902L98.9777 60.3186C99.0167 60.3971 99.0813 60.46 99.161 60.4969C99.2407 60.5339 99.3307 60.5426 99.416 60.5216L101.563 59.9851V59.1989L99.531 59.7094Z" fill="#4360FA" />
	<path d="M105.892 67.7034L103.95 69.447V70.4747L106.744 67.9666C106.785 67.9293 106.818 67.8835 106.84 67.8322C106.862 67.7809 106.872 67.7254 106.87 67.6697C106.868 67.614 106.854 67.5594 106.829 67.5098C106.803 67.4601 106.767 67.4166 106.723 67.3824L103.95 65.2271V66.1958L105.892 67.7034Z" fill="#4360FA" />
	<path d="M55.2114 67.7034L57.051 66.273V65.3042L54.3792 67.3824C54.3351 67.4166 54.299 67.4601 54.2736 67.5098C54.2482 67.5594 54.234 67.614 54.232 67.6697C54.2301 67.7254 54.2404 67.7809 54.2623 67.8322C54.2842 67.8835 54.3171 67.9293 54.3587 67.9666L57.0498 70.3828V69.3562L55.2114 67.7034Z" fill="#4360FA" />
	<path d="M56.4317 59.2148L57.0499 59.369V58.5818L55.9252 58.3016C55.8578 58.2843 55.787 58.2857 55.7204 58.3055C55.6538 58.3253 55.5939 58.3628 55.547 58.414C55.5002 58.4652 55.4683 58.5282 55.4547 58.5961C55.4411 58.664 55.4463 58.7344 55.4698 58.7996L57.0487 63.2237V60.947L56.4317 59.2148Z" fill="#4360FA" />
	<path d="M67.351 79.6336L66.6293 83.2126C66.6165 83.2729 66.6186 83.3355 66.6355 83.3949C66.6524 83.4542 66.6835 83.5086 66.7262 83.5532C66.7689 83.5979 66.8219 83.6316 66.8806 83.6513C66.9393 83.671 67.0019 83.6761 67.063 83.6663L78.333 81.9126L78.2134 94.232C78.213 94.282 78.2224 94.3317 78.2412 94.3781C78.26 94.4245 78.2878 94.4668 78.323 94.5025C78.3582 94.5382 78.4002 94.5666 78.4464 94.5862C78.4926 94.6058 78.5423 94.6161 78.5925 94.6165C78.6934 94.6162 78.7901 94.5765 78.8619 94.5058C78.9336 94.4352 78.9746 94.3393 78.9761 94.2388L79.0991 81.4702C79.0998 81.4147 79.0883 81.3598 79.0655 81.3093C79.0427 81.2587 79.0091 81.2137 78.967 81.1774C78.925 81.1412 78.8755 81.1144 78.822 81.0992C78.7685 81.0839 78.7124 81.0804 78.6574 81.089L67.4842 82.828L68.141 79.5735C68.1547 79.509 68.1513 79.4421 68.1314 79.3793C68.1115 79.3165 68.0756 79.2599 68.0272 79.215L59.4381 71.5012V72.5278L67.351 79.6336Z" fill="#4360FA" />
	<path d="M104.671 59.2148L103.95 61.2351V63.5129L105.631 58.7996C105.655 58.7344 105.66 58.664 105.647 58.5961C105.633 58.5282 105.601 58.4652 105.554 58.414C105.507 58.3628 105.447 58.3253 105.381 58.3055C105.314 58.2857 105.243 58.2843 105.176 58.3016L103.949 58.6079V59.394L104.671 59.2148Z" fill="#4360FA" />
	<path d="M93.0761 79.2103C93.028 79.2554 92.9923 79.3121 92.9724 79.3748C92.9524 79.4376 92.949 79.5043 92.9623 79.5688L93.6191 82.8233L82.4414 81.0843C82.4217 81.0826 82.4018 81.0826 82.3822 81.0843C82.3315 81.0843 82.2814 81.0943 82.2347 81.1138C82.188 81.1332 82.1456 81.1617 82.1101 81.1976C82.0745 81.2334 82.0464 81.276 82.0275 81.3228C82.0085 81.3695 81.9991 81.4196 81.9997 81.47L82.1237 94.2386C82.1246 94.3391 82.1653 94.4352 82.237 94.506C82.3086 94.5767 82.4054 94.6164 82.5062 94.6164C82.5565 94.6159 82.6061 94.6056 82.6524 94.5861C82.6986 94.5665 82.7405 94.5381 82.7757 94.5023C82.8109 94.4666 82.8387 94.4244 82.8575 94.378C82.8763 94.3315 82.8858 94.2819 82.8853 94.2318L82.7715 81.9124L94.0414 83.6662C94.1026 83.676 94.1652 83.6708 94.2238 83.6511C94.2825 83.6314 94.3355 83.5978 94.3782 83.5531C94.4209 83.5084 94.452 83.4541 94.4689 83.3947C94.4858 83.3354 94.488 83.2728 94.4752 83.2124L93.7512 79.6335L101.563 72.6196V71.5986L93.0761 79.2103Z" fill="#4360FA" />
	<path d="M101.563 71.5908V72.6174L103.95 70.4745V69.4468L101.563 71.5908Z" fill="#4360FA" />
	<path d="M101.563 59.9884L103.95 59.3928V58.6067L101.563 59.2022V59.9884Z" fill="#4360FA" />
	<path d="M102.658 64.8571C102.631 64.9325 102.629 65.0143 102.651 65.0911C102.674 65.1678 102.72 65.2356 102.783 65.2848L103.95 66.1923V65.2269L103.472 64.8548L103.95 63.514V61.2339L102.658 64.8571Z" fill="#4360FA" />
	<path d="M58.3191 65.2847C58.3823 65.2355 58.4285 65.1677 58.4509 65.091C58.4734 65.0142 58.4711 64.9324 58.4443 64.857L57.0498 60.9468V63.2257L57.6304 64.8525L57.0498 65.3062V66.275L58.3191 65.2847Z" fill="#4360FA" />
	<path d="M57.0498 58.5806V59.3678L59.437 59.9634V59.1761L57.0498 58.5806Z" fill="#4360FA" />
	<path d="M57.0498 70.3827L59.437 72.5256V71.499L57.0498 69.355V70.3827Z" fill="#4360FA" />
</svg>
