<svg width="186" height="109" viewBox="0 0 186 109" fill="none" xmlns="http://www.w3.org/2000/svg">
	<path d="M118.11 54.1337V54.1124C118.11 54.0903 118.11 54.07 118.11 54.0497L118.105 53.976C118.105 53.964 118.105 53.952 118.105 53.9409V53.9096C118.105 53.8893 118.099 53.8727 118.096 53.857V53.8358C118.096 53.8183 118.089 53.8026 118.085 53.7869V53.7703C118.08 53.7482 118.076 53.7334 118.072 53.7187L118.064 53.6928C118.064 53.6799 118.056 53.667 118.051 53.6532L118.042 53.6246L118.028 53.5886L118.004 53.5314L117.999 53.5195L117.972 53.4632C117.966 53.4503 117.96 53.4374 117.954 53.4254L117.941 53.4023L117.917 53.3608L117.902 53.3378L117.88 53.3027L117.862 53.2778L117.837 53.2428L117.745 53.1294C117.73 53.1128 117.713 53.0952 117.695 53.0768L105.525 40.9037C105.249 40.6269 104.874 40.4714 104.482 40.4714C104.091 40.4714 103.716 40.6269 103.439 40.9037C103.162 41.1804 103.007 41.5558 103.007 41.9471C103.007 42.3385 103.162 42.7139 103.439 42.9906L113.074 52.6489H64.3947C64.0035 52.6489 63.6283 52.8044 63.3516 53.0811C63.075 53.3578 62.9196 53.7331 62.9196 54.1244C62.9191 54.1284 62.9191 54.1324 62.9196 54.1364C62.9191 54.1404 62.9191 54.1444 62.9196 54.1484C62.9196 54.5397 63.075 54.915 63.3516 55.1918C63.6283 55.4685 64.0035 55.6239 64.3947 55.6239H113.074L103.422 65.2785C103.282 65.4148 103.17 65.5777 103.094 65.7575C103.017 65.9374 102.977 66.1308 102.975 66.3263C102.974 66.5219 103.011 66.7158 103.086 66.8968C103.16 67.0777 103.269 67.2421 103.408 67.3804C103.546 67.5187 103.71 67.628 103.891 67.7022C104.072 67.7763 104.266 67.8138 104.461 67.8123C104.657 67.8108 104.85 67.7705 105.03 67.6936C105.21 67.6168 105.373 67.5049 105.509 67.3646L117.679 55.1914L117.729 55.1398L117.821 55.0263L117.846 54.9913L117.863 54.9664C117.871 54.9535 117.88 54.9406 117.885 54.9304L117.9 54.9074C117.908 54.8945 117.916 54.8806 117.924 54.8668L117.937 54.8428L117.955 54.8059L117.982 54.7497L117.988 54.7377L118.012 54.6805L118.025 54.6436L118.035 54.615L118.048 54.5763L118.055 54.5496C118.055 54.5348 118.063 54.5201 118.069 54.4979V54.4822C118.072 54.4669 118.076 54.4503 118.08 54.4324V54.4122C118.08 54.3956 118.085 54.3799 118.088 54.3596V54.3282C118.088 54.3162 118.088 54.3043 118.088 54.2923L118.094 54.2194C118.094 54.1991 118.094 54.1779 118.094 54.1558V54.1337H118.11Z" fill="black" />
	<path d="M170.827 100.045C171.062 100.045 171.287 99.9515 171.453 99.7856C171.618 99.6198 171.711 99.3948 171.711 99.1603C171.711 98.9257 171.618 98.7008 171.453 98.5349C171.287 98.3691 171.062 98.2759 170.827 98.2759H147.528C147.294 98.2759 147.069 98.3691 146.903 98.5349C146.737 98.7008 146.644 98.9257 146.644 99.1603C146.644 99.3948 146.737 99.6198 146.903 99.7856C147.069 99.9515 147.294 100.045 147.528 100.045H170.827Z" fill="black" />
	<path d="M132.355 104.019C132.355 106.364 133.952 108.273 135.914 108.273H182.441C184.403 108.273 186 106.364 186 104.019V4.25322C186 1.90805 184.403 0 182.441 0H135.914C133.952 0 132.355 1.90805 132.355 4.25322V104.019ZM134.515 4.25322C134.515 3.29781 135.144 2.51947 135.919 2.51947H142.897L143.03 2.81089C143.497 3.84284 144.399 4.48285 145.382 4.48285H172.983C173.966 4.48285 174.867 3.84284 175.335 2.81089L175.466 2.51947H182.446C183.22 2.51947 183.85 3.29781 183.85 4.25322V104.019C183.85 104.975 183.22 105.752 182.446 105.752H135.914C135.14 105.752 134.51 104.975 134.51 104.019L134.515 4.25322Z" fill="black" />
	<path d="M165.769 53.8523L162.878 48.5662L159.989 53.8523L154.703 56.7434L159.989 59.6345L162.878 64.9206L165.769 59.6345L171.053 56.7434L165.769 53.8523Z" fill="#4360FA" />
	<path d="M157.258 47.0723L159 43.8852L162.187 42.1413L159 40.3983L157.258 37.2112L155.515 40.3983L152.329 42.1413L155.515 43.8852L157.258 47.0723Z" fill="#4360FA" />
	<path d="M11.6399 19.1682C12.5766 20.5976 13.5063 22.0317 14.4288 23.4703L15.8118 25.6264L17.1883 27.7881L18.5638 29.9507L19.9293 32.1188L22.6564 36.4532L22.414 36.2521L27.2082 37.9766L29.6053 38.838L32.0024 39.7085L36.7874 41.4607L41.5687 43.2212C41.6668 43.2574 41.755 43.316 41.8263 43.3924C41.8976 43.4688 41.9501 43.5608 41.9795 43.6611C42.0089 43.7614 42.0144 43.8672 41.9956 43.97C41.9768 44.0728 41.9341 44.1698 41.8711 44.2532L41.8656 44.2596L37.2714 50.2789L32.657 56.2825L28.0186 62.2694L23.3581 68.2435L23.3359 67.5057L27.8757 72.8702C28.6335 73.7629 29.3874 74.6596 30.1373 75.5603L32.3933 78.2541C33.1475 79.1504 33.8943 80.0533 34.642 80.9552L36.8842 83.661L39.1144 86.3778C39.852 87.2859 40.5896 88.1955 41.3272 89.1066C40.526 88.2517 39.7312 87.3904 38.93 86.5309L36.5523 83.9432L34.1939 81.3388C33.4053 80.4726 32.6186 79.6048 31.8337 78.7355L29.4818 76.1247C28.6969 75.256 27.9144 74.3851 27.1344 73.5121L22.4564 68.2675C22.3681 68.1685 22.3168 68.042 22.3113 67.9096C22.3058 67.7771 22.3463 67.6468 22.426 67.5408L22.4343 67.5306L26.9924 61.4837L31.5718 55.4534L36.1752 49.4397L40.7979 43.4453L41.0957 44.4837L36.3338 42.6725L31.5765 40.8484L29.1996 39.9317L26.8293 39.0095L22.0821 37.1651L22.0682 37.1596C21.9714 37.1224 21.8903 37.0531 21.8387 36.9631L19.2627 32.5365L17.9766 30.3232L16.7006 28.1007L15.4246 25.8782L14.1541 23.6363C13.3096 22.1516 12.4715 20.6622 11.6399 19.1682Z" fill="#4360FA" />
	<path d="M38.4718 100.045C38.7063 100.045 38.9312 99.9515 39.097 99.7856C39.2628 99.6198 39.3559 99.3948 39.3559 99.1603C39.3559 98.9257 39.2628 98.7008 39.097 98.5349C38.9312 98.3691 38.7063 98.2759 38.4718 98.2759H15.1728C14.9383 98.2759 14.7134 98.3691 14.5476 98.5349C14.3818 98.7008 14.2886 98.9257 14.2886 99.1603C14.2886 99.3948 14.3818 99.6198 14.5476 99.7856C14.7134 99.9515 14.9383 100.045 15.1728 100.045H38.4718Z" fill="black" />
	<path d="M0 104.019C0 106.364 1.59684 108.273 3.55878 108.273H50.0858C52.0477 108.273 53.6445 106.364 53.6445 104.019V4.25322C53.6445 1.90805 52.0477 0 50.0858 0H3.55878C1.59684 0 0 1.90805 0 4.25322V104.019ZM2.15463 4.25322C2.15463 3.29781 2.78433 2.51947 3.55878 2.51947H10.5371L10.669 2.81089C11.1373 3.84284 12.039 4.48285 13.0218 4.48285H40.6227C41.6055 4.48285 42.5072 3.84284 42.9746 2.81089L43.1065 2.51947H50.0858C50.8602 2.51947 51.4899 3.29781 51.4899 4.25322V104.019C51.4899 104.975 50.8602 105.752 50.0858 105.752H3.55878C2.78433 105.752 2.15463 104.975 2.15463 104.019V4.25322Z" fill="black" />
</svg>
