<svg width="162" height="113" viewBox="0 0 162 113" fill="none" xmlns="http://www.w3.org/2000/svg">
	<path d="M119.418 52.1596L119.392 52.1044L119.373 52.0673L119.36 52.0446L119.337 52.0039L119.323 51.9813C119.316 51.9722 119.309 51.9596 119.3 51.9469L119.283 51.9224L119.258 51.888L119.167 51.7767C119.153 51.7613 119.136 51.7432 119.118 51.7251L107.114 39.7756C106.84 39.5104 106.472 39.3633 106.09 39.366C105.708 39.3687 105.342 39.521 105.072 39.79C104.802 40.059 104.648 40.423 104.646 40.8035C104.643 41.184 104.79 41.5503 105.056 41.8233L114.579 51.3023H66.565C66.1791 51.3023 65.809 51.4549 65.5361 51.7266C65.2633 51.9982 65.11 52.3666 65.11 52.7508C65.11 53.1349 65.2633 53.5033 65.5361 53.7749C65.809 54.0466 66.1791 54.1992 66.565 54.1992H118.089H118.163L118.233 54.1938L118.295 54.1865L118.347 54.1775H118.367L118.415 54.1675L118.444 54.1612L118.485 54.1494L118.51 54.1422L118.549 54.1295L118.737 54.0525L118.776 54.0326L118.797 54.0208L118.836 53.9991L118.86 53.9837L118.897 53.9602L118.918 53.9448C118.93 53.937 118.943 53.9286 118.954 53.9195L119.065 53.8289C119.1 53.7972 119.134 53.7638 119.166 53.7284L119.257 53.6162C119.264 53.6071 119.273 53.5945 119.282 53.5818L119.293 53.5655C119.306 53.5474 119.313 53.5347 119.322 53.522L119.331 53.5076C119.343 53.4895 119.349 53.4768 119.356 53.4641L119.369 53.4415L119.389 53.4025L119.416 53.3455V53.3356L119.441 53.2785C119.441 53.2668 119.449 53.2559 119.454 53.245L119.463 53.217L119.476 53.1762L119.484 53.1509C119.484 53.1364 119.492 53.1219 119.495 53.1074V53.0848L119.506 53.0377V53.0133C119.506 53.0006 119.511 52.9843 119.514 52.968V52.9327C119.514 52.9218 119.514 52.911 119.514 52.8992L119.519 52.8277C119.519 52.8069 119.519 52.7861 119.519 52.7661V52.7471C119.519 52.7263 119.519 52.7055 119.519 52.6856L119.514 52.6132C119.514 52.6014 119.514 52.5905 119.514 52.5788V52.548C119.514 52.5281 119.508 52.5127 119.505 52.4964V52.4765C119.505 52.4584 119.498 52.443 119.494 52.4276V52.4113C119.49 52.3905 119.485 52.376 119.481 52.3606L119.474 52.3352L119.461 52.2963L119.452 52.2682L119.438 52.2329L119.414 52.1768" fill="black" />
	<path d="M65.2356 60.8401L65.262 60.8953L65.2811 60.9324L65.2938 60.9551L65.3175 60.9958L65.3311 61.0184L65.3538 61.0528L65.3711 61.0773C65.3793 61.0891 65.3866 61.1008 65.3957 61.1117L65.4866 61.223C65.5012 61.2393 65.5175 61.2565 65.5357 61.2746L77.5393 73.2242C77.8122 73.4958 78.1823 73.6484 78.5682 73.6484C78.9542 73.6484 79.3243 73.4958 79.5972 73.2242C79.8701 72.9525 80.0234 72.584 80.0234 72.1999C80.0234 71.8157 79.8701 71.4472 79.5972 71.1755L70.0771 61.6974H118.091C118.477 61.6974 118.847 61.5448 119.12 61.2732C119.393 61.0015 119.546 60.6331 119.546 60.249C119.546 59.8648 119.393 59.4964 119.12 59.2248C118.847 58.9531 118.477 58.8005 118.091 58.8005H66.5651H66.4914L66.4214 58.806L66.3596 58.8141L66.3078 58.8223H66.2887L66.2396 58.8322L66.2105 58.8395L66.1695 58.8503L66.1441 58.8576L66.1059 58.8702L65.9176 58.9472L65.8794 58.9671L65.8576 58.9789L65.8185 59.0015L65.7949 59.016L65.7576 59.0395L65.7367 59.0549C65.7241 59.0627 65.7119 59.0711 65.7003 59.0803L65.5894 59.1708C65.5548 59.2025 65.5202 59.236 65.4884 59.2713L65.3975 59.3835C65.3902 59.3926 65.3811 59.4053 65.3729 59.4179L65.3611 59.4342L65.3329 59.4777L65.3238 59.4922L65.2984 59.5356L65.2856 59.5592L65.2656 59.5972L65.2383 59.6542V59.6642L65.2147 59.7212L65.2011 59.7556L65.192 59.7828L65.1783 59.8244L65.172 59.8488C65.1674 59.8633 65.1638 59.8778 65.1601 59.8923L65.1547 59.9149L65.1438 59.962V59.9873C65.1438 59.9991 65.1383 60.0154 65.1356 60.0317V60.067C65.1356 60.0779 65.1356 60.0887 65.1356 60.1005L65.1301 60.172C65.1301 60.1928 65.1301 60.2137 65.1301 60.2336V60.2526C65.1301 60.2743 65.1301 60.2942 65.1301 60.3141L65.1356 60.3866C65.1356 60.3983 65.1356 60.4101 65.1356 60.421V60.4517C65.1356 60.4717 65.141 60.488 65.1438 60.5033V60.5242C65.1438 60.5414 65.151 60.5568 65.1547 60.5721V60.5884C65.1601 60.6102 65.1638 60.6247 65.1683 60.6391L65.1756 60.6645C65.1756 60.6772 65.1838 60.6898 65.1883 60.7034L65.1974 60.7315L65.2111 60.7668L65.2347 60.8229" fill="black" />
	<path d="M149.339 45.6445C149.394 45.647 149.449 45.6385 149.5 45.6194C149.552 45.6003 149.599 45.571 149.638 45.5333C149.678 45.4956 149.71 45.4503 149.731 45.4001C149.753 45.3499 149.764 45.2958 149.764 45.2412C149.764 45.1865 149.753 45.1325 149.731 45.0822C149.71 45.032 149.678 44.9867 149.638 44.949C149.599 44.9113 149.552 44.882 149.5 44.8629C149.449 44.8438 149.394 44.8353 149.339 44.8379H138.659C138.604 44.8353 138.549 44.8438 138.498 44.8629C138.446 44.882 138.399 44.9113 138.36 44.949C138.32 44.9867 138.288 45.032 138.267 45.0822C138.245 45.1325 138.234 45.1865 138.234 45.2412C138.234 45.2958 138.245 45.3499 138.267 45.4001C138.288 45.4503 138.32 45.4956 138.36 45.5333C138.399 45.571 138.446 45.6003 138.498 45.6194C138.549 45.6385 138.604 45.647 138.659 45.6445H149.339Z" fill="black" />
	<path d="M131.703 47.4577C131.703 48.5278 132.43 49.3986 133.334 49.3986H154.664C155.563 49.3986 156.295 48.5278 156.295 47.4577V1.94089C156.295 0.870867 155.567 0 154.664 0H133.334C132.435 0 131.703 0.870867 131.703 1.94089V47.4577ZM132.691 1.94089C132.691 1.50455 132.979 1.14969 133.334 1.14969H136.534L136.594 1.28276C136.808 1.7535 137.222 2.045 137.672 2.045H150.325C150.78 2.045 151.189 1.7535 151.403 1.28276L151.464 1.14969H154.664C155.018 1.14969 155.307 1.50455 155.307 1.94089V47.4577C155.307 47.8941 155.018 48.2489 154.664 48.2489H133.334C132.979 48.2489 132.691 47.8941 132.691 47.4577V1.94089Z" fill="black" />
	<path d="M147.021 24.5698L145.696 22.1582L144.371 24.5698L141.948 25.8888L144.371 27.2078L145.696 29.6194L147.021 27.2078L149.443 25.8888L147.021 24.5698Z" fill="#4360FA" />
	<path d="M143.118 21.4756L143.918 20.0217L145.378 19.2269L143.918 18.4312L143.118 16.9773L142.32 18.4312L140.859 19.2269L142.32 20.0217L143.118 21.4756Z" fill="#4360FA" />
	<path d="M152.89 99.8103L152.355 95.5737L152.257 94.8006L150.939 84.39L150.837 83.5852L150.433 80.3987L150.224 78.7438L149.77 75.1409C149.754 75.0115 149.688 74.8933 149.586 74.8112C149.484 74.7292 149.354 74.6896 149.224 74.7009C147.563 74.8485 145.993 74.108 144.962 72.846C144.764 72.6039 144.587 72.3449 144.435 72.072C144.121 71.5099 143.908 70.897 143.807 70.2615C143.787 70.1312 143.717 70.0137 143.611 69.9344C143.505 69.855 143.373 69.82 143.241 69.8369L136.899 70.6326L136.023 70.7431L135.42 70.8182C135.289 70.8344 135.169 70.901 135.086 71.0038C135.004 71.1067 134.965 71.2376 134.978 71.3686C135.238 74.1134 133.419 76.592 130.838 77.0112C130.709 77.0324 130.592 77.1028 130.514 77.2077C130.435 77.3125 130.401 77.4436 130.417 77.5733L133.54 102.243C133.556 102.372 133.622 102.491 133.723 102.573C133.825 102.655 133.955 102.694 134.086 102.683C134.74 102.625 135.399 102.704 136.021 102.914C136.325 103.016 136.619 103.148 136.898 103.307C137.591 103.71 138.184 104.263 138.635 104.924C139.086 105.585 139.382 106.338 139.503 107.128C139.523 107.258 139.593 107.375 139.698 107.454C139.804 107.533 139.936 107.568 140.068 107.551L144.35 107.014L144.973 106.936L147.889 106.574C148.02 106.557 148.14 106.491 148.223 106.388C148.305 106.285 148.344 106.154 148.331 106.023C148.072 103.278 149.89 100.8 152.471 100.381C152.602 100.359 152.72 100.288 152.798 100.181C152.877 100.074 152.91 99.9412 152.89 99.8103ZM150.496 100.434C149.968 100.747 149.495 101.144 149.097 101.611C149.004 101.718 148.916 101.829 148.832 101.944C147.984 103.105 147.582 104.53 147.697 105.961L144.826 106.323L144.194 106.402L140.102 106.916C139.858 105.501 139.113 104.22 138.002 103.305C137.663 103.026 137.292 102.788 136.898 102.595C136.616 102.457 136.322 102.343 136.021 102.255C135.413 102.077 134.778 102.008 134.146 102.05L131.054 77.6077C132.432 77.3491 133.658 76.5732 134.478 75.4405C135.325 74.2794 135.728 72.8546 135.612 71.4238L136.024 71.3722L136.9 71.2618L143.208 70.4706C143.368 71.3863 143.737 72.2533 144.286 73.0053C144.58 73.4066 144.923 73.7692 145.308 74.0844C146.385 74.9785 147.765 75.4272 149.165 75.3382L149.529 78.217L149.606 78.8317L149.814 80.4801L149.892 81.0939L150.191 83.4612L150.291 84.2452L151.663 95.0812L151.759 95.8416L152.258 99.7841C151.638 99.8962 151.043 100.116 150.5 100.434H150.496Z" fill="black" />
	<path d="M159.576 66.7091H151.846L151.793 66.2882C151.72 65.7144 151.421 65.193 150.962 64.8383C150.503 64.4837 149.921 64.3247 149.345 64.3962L128.147 67.0549C127.571 67.1281 127.047 67.4259 126.691 67.8829C126.335 68.3398 126.175 68.9188 126.247 69.4928L131.512 111.091C131.585 111.665 131.885 112.186 132.344 112.541C132.803 112.895 133.384 113.054 133.961 112.983L136.957 112.607C137.325 112.863 137.763 113 138.211 113H159.576C160.157 113 160.714 112.77 161.125 112.361C161.536 111.952 161.768 111.397 161.768 110.818V68.8908C161.767 68.3123 161.536 67.7578 161.125 67.3489C160.714 66.9399 160.157 66.7098 159.576 66.7091ZM137.234 111.693L136.262 111.814L133.851 112.116C133.505 112.16 133.156 112.064 132.88 111.851C132.605 111.639 132.425 111.326 132.381 110.981L127.116 69.3842C127.073 69.0398 127.169 68.6924 127.383 68.4182C127.596 68.144 127.911 67.9653 128.256 67.9213L149.454 65.2625C149.8 65.2195 150.149 65.3148 150.424 65.5276C150.7 65.7404 150.879 66.0534 150.923 66.3977L150.963 66.7091L151.073 67.5827L151.549 71.3432L151.628 71.966L153.233 84.6398L153.357 85.6147L154.31 93.152L154.424 94.0573L155.549 102.936L155.64 103.625L156.193 107.994C156.236 108.338 156.14 108.686 155.927 108.96C155.713 109.234 155.398 109.412 155.053 109.456L137.234 111.693ZM156.137 89.855C156.137 88.1984 155.459 86.6431 154.221 85.44L152.512 71.9687H152.722C152.786 73.4029 153.365 74.7667 154.351 75.8134C155.308 76.8333 156.622 77.4489 158.021 77.5334V102.173C157.46 102.206 156.908 102.326 156.384 102.529L155.189 93.0859C155.808 92.1211 156.137 91 156.137 89.855ZM155.046 91.9752L154.371 86.6341C155.104 87.5504 155.505 88.6851 155.511 89.8559C155.511 90.5874 155.353 91.3103 155.046 91.9752ZM160.894 110.823C160.894 111.17 160.755 111.503 160.508 111.748C160.262 111.994 159.927 112.132 159.579 112.132H140.782L155.158 110.329C155.735 110.255 156.258 109.958 156.615 109.501C156.971 109.044 157.13 108.465 157.059 107.891L156.462 103.178C156.999 102.947 157.575 102.818 158.159 102.797C158.29 102.792 158.415 102.737 158.506 102.643C158.597 102.548 158.647 102.422 158.646 102.292V77.423C158.647 77.2922 158.597 77.1662 158.506 77.0719C158.415 76.9776 158.29 76.9223 158.159 76.9178C155.545 76.8273 153.43 74.5904 153.339 71.8338C153.336 71.7023 153.281 71.5774 153.186 71.4857C153.091 71.3941 152.964 71.3429 152.832 71.3432H152.429L151.954 67.5827H159.573C159.922 67.5822 160.257 67.7198 160.504 67.965C160.752 68.2103 160.891 68.5433 160.892 68.8908L160.894 110.823Z" fill="black" />
	<path d="M148.837 87.7882C148.669 86.4764 148.074 85.2557 147.141 84.3138C146.933 84.1009 146.71 83.9022 146.475 83.719C146.358 83.6285 146.238 83.538 146.111 83.4556C144.609 82.4308 142.734 81.9981 140.837 82.2362C140.476 82.2812 140.12 82.3501 139.769 82.4426C139.556 82.4987 139.347 82.5633 139.142 82.6363C138.328 82.9224 137.569 83.3453 136.898 83.8865C136.585 84.1398 136.294 84.419 136.029 84.7211L136.021 84.7293C134.8 86.1216 134.25 87.8479 134.47 89.5906C134.628 90.8314 135.17 91.9924 136.021 92.912C136.289 93.2036 136.583 93.4709 136.898 93.7105C136.989 93.7829 137.093 93.8544 137.194 93.9232C137.792 94.331 138.449 94.6471 139.142 94.8611C139.348 94.9214 139.557 94.9763 139.769 95.0258C140.656 95.2183 141.57 95.2578 142.471 95.1426C143.035 95.0726 143.591 94.943 144.128 94.756C144.394 94.6634 144.654 94.5567 144.909 94.4365C145.812 94.0101 146.619 93.4049 147.28 92.6576C148.504 91.2644 149.058 89.5308 148.837 87.7882ZM144.22 93.9169C143.975 94.0146 143.724 94.0992 143.469 94.1703C143.111 94.2698 142.747 94.343 142.378 94.3894C141.508 94.501 140.625 94.4578 139.771 94.2618C139.557 94.212 139.348 94.154 139.144 94.0861C138.319 93.8171 137.555 93.3861 136.9 92.8188C136.571 92.5331 136.277 92.2105 136.023 91.8574C135.522 91.1653 135.202 90.3593 135.093 89.5127C134.927 88.2028 135.286 86.93 136.023 85.8582C136.278 85.4888 136.572 85.1479 136.9 84.8416C137.551 84.2358 138.313 83.7601 139.144 83.4402C139.348 83.3605 139.556 83.2899 139.771 83.2284C140.152 83.1187 140.541 83.0388 140.935 82.9894C142.702 82.7676 144.385 83.1759 145.691 84.0169C145.935 84.1742 146.168 84.3485 146.388 84.5383C147.379 85.3965 148.052 86.5471 148.219 87.866C148.542 90.4433 146.839 92.8749 144.225 93.9169H144.22Z" fill="black" />
	<path d="M142.042 78.4568C142.011 78.2071 141.923 77.9677 141.785 77.7568C141.647 77.5459 141.462 77.3689 141.246 77.2392C140.903 77.0353 140.498 76.9603 140.105 77.0279C139.711 77.0954 139.355 77.3011 139.101 77.6075C138.846 77.914 138.711 78.301 138.718 78.6984C138.726 79.0958 138.876 79.4774 139.142 79.774C139.38 80.0373 139.697 80.2181 140.045 80.2901C140.393 80.3621 140.756 80.3216 141.08 80.1743C141.403 80.027 141.671 79.7808 141.845 79.4714C142.018 79.162 142.087 78.8056 142.043 78.4541L142.042 78.4568ZM140.531 79.821C140.301 79.8501 140.068 79.8105 139.86 79.7075C139.653 79.6044 139.481 79.4425 139.366 79.2421C139.251 79.0417 139.199 78.812 139.215 78.5819C139.232 78.3518 139.316 78.1317 139.458 77.9494C139.6 77.7672 139.794 77.631 140.013 77.5581C140.233 77.4852 140.47 77.4788 140.693 77.5398C140.917 77.6008 141.117 77.7265 141.269 77.9008C141.421 78.0751 141.517 78.2904 141.546 78.5193C141.565 78.6712 141.555 78.8255 141.514 78.9733C141.474 79.1211 141.404 79.2594 141.31 79.3804C141.215 79.5014 141.098 79.6026 140.964 79.6782C140.83 79.7538 140.683 79.8024 140.53 79.821H140.531Z" fill="black" />
	<path d="M144.58 98.5068C144.538 98.1802 144.401 97.8732 144.184 97.6246C143.968 97.3759 143.682 97.1967 143.363 97.1097C143.044 97.0227 142.707 97.0318 142.393 97.1358C142.08 97.2398 141.804 97.4341 141.601 97.694C141.398 97.9539 141.278 98.2679 141.254 98.5962C141.231 98.9244 141.306 99.2522 141.469 99.5382C141.633 99.8241 141.878 100.055 142.174 100.203C142.469 100.35 142.802 100.406 143.13 100.365C143.57 100.31 143.969 100.083 144.241 99.7346C144.513 99.3861 144.635 98.9445 144.58 98.5068ZM143.068 99.871C142.839 99.8998 142.606 99.8602 142.399 99.7571C142.192 99.654 142.02 99.4922 141.905 99.292C141.791 99.0918 141.738 98.8623 141.755 98.6324C141.771 98.4026 141.856 98.1828 141.998 98.0007C142.139 97.8187 142.332 97.6826 142.552 97.6098C142.772 97.5369 143.008 97.5305 143.231 97.5913C143.454 97.6522 143.654 97.7775 143.806 97.9516C143.958 98.1257 144.054 98.3406 144.083 98.5692C144.122 98.8757 144.036 99.1849 143.846 99.4289C143.656 99.6729 143.376 99.8319 143.068 99.871Z" fill="black" />
	<path d="M37.9461 101.566C38.1774 101.566 38.3992 101.474 38.5628 101.311C38.7263 101.149 38.8182 100.928 38.8182 100.697C38.8182 100.467 38.7263 100.246 38.5628 100.084C38.3992 99.9208 38.1774 99.8293 37.9461 99.8293H14.9656C14.7343 99.8293 14.5125 99.9208 14.3489 100.084C14.1854 100.246 14.0935 100.467 14.0935 100.697C14.0935 100.928 14.1854 101.149 14.3489 101.311C14.5125 101.474 14.7343 101.566 14.9656 101.566H37.9461Z" fill="black" />
	<path d="M0 105.464C0 107.766 1.57502 109.639 3.51014 109.639H49.4011C51.3363 109.639 52.9113 107.766 52.9113 105.464V7.53349C52.9113 5.2314 51.3363 3.3584 49.4011 3.3584H3.51014C1.57502 3.3584 0 5.2314 0 7.53349V105.464ZM2.12518 7.53349C2.12518 6.59564 2.74628 5.83159 3.51014 5.83159H10.3931L10.5232 6.11765C10.9851 7.12974 11.8745 7.7589 12.8438 7.7589H40.0674C41.0368 7.7589 41.9262 7.12974 42.3872 6.11765L42.5173 5.83159H49.4011C50.165 5.83159 50.7861 6.59564 50.7861 7.53349V105.464C50.7861 106.402 50.165 107.165 49.4011 107.165H3.51014C2.74628 107.165 2.12518 106.402 2.12518 105.464V7.53349Z" fill="black" />
	<path d="M12.8219 21.2075C15.2699 27.0221 17.6333 32.8692 19.9686 38.7272L20.8452 40.9233L21.7137 43.1231L23.4478 47.5264L26.8797 56.34L30.2653 65.1718L31.9394 69.595L32.7761 71.8065L33.6027 74.0217C35.8124 79.9277 37.9922 85.8454 40.0882 91.7949C37.6393 85.9812 35.275 80.1341 32.9407 74.2761L32.064 72.079L31.1956 69.8801L29.4632 65.4769L26.0331 56.6623L22.643 47.8305L20.9725 43.4074L20.1368 41.1949L19.3093 38.9797C17.0959 33.0738 14.9198 27.1578 12.8219 21.2075Z" fill="#4360FA" />
</svg>
