<svg width="240" height="65" viewBox="0 0 240 65" fill="none" xmlns="http://www.w3.org/2000/svg">
<path d="M83.4146 32.4512C83.4146 38.475 79.7678 43.8594 71.9341 43.8594H63.1211V21.043H71.9678C79.9704 21.043 83.4146 26.4274 83.4146 32.4512ZM77.9782 32.4512C77.9782 29.0186 76.0198 25.7207 72.0354 25.7207H68.5912V39.1817H72.0354C76.0198 39.1817 77.9782 35.8837 77.9782 32.4512Z" fill="black"/>
<path d="M102.052 36.8599H90.1662C90.5377 38.8117 91.8545 40.2251 93.8467 40.2251C95.3662 40.2251 96.3117 39.4175 96.7169 38.4079H101.849C101.174 41.4366 98.6078 44.3644 93.9143 44.3644C88.1065 44.3644 85 40.3934 85 35.5474C85 30.4322 88.2078 26.7305 93.813 26.7305C98.0338 26.7305 102.153 29.3217 102.153 35.0426C102.153 35.5138 102.086 36.3551 102.052 36.8599ZM90.2338 33.7638H96.9532C96.7506 31.9466 95.5688 30.8024 93.8467 30.8024C91.5844 30.7688 90.639 32.1149 90.2338 33.7638Z" fill="black"/>
<path d="M107.593 27.2695L111.239 37.0961L114.886 27.2695H120.356L113.603 43.8602H108.909L102.156 27.2695H107.593Z" fill="black"/>
<path d="M121.637 20H126.837V24.6777H121.637V20ZM121.637 27.2689H126.837V43.8596H121.637V27.2689Z" fill="black"/>
<path d="M137.911 26.7656C143.078 26.7656 145.813 30.7366 146.117 34.3374H140.984C140.782 33.0923 139.667 31.4433 137.945 31.4433C135.615 31.4433 134.163 33.3279 134.163 35.5826C134.163 37.8373 135.615 39.7219 137.945 39.7219C139.701 39.7219 140.815 38.0056 140.984 36.7604H146.117C145.813 40.3949 143.145 44.3659 137.911 44.3659C132.273 44.3659 128.93 40.3949 128.93 35.5489C128.93 30.703 132.171 26.7656 137.911 26.7656Z" fill="black"/>
<path d="M164.861 36.8599H152.975C153.346 38.8117 154.663 40.2251 156.655 40.2251C158.175 40.2251 159.12 39.4175 159.525 38.4079H164.658C163.983 41.4366 161.416 44.3644 156.723 44.3644C150.915 44.3644 147.809 40.3934 147.809 35.5474C147.809 30.4322 151.016 26.7305 156.622 26.7305C160.842 26.7305 164.962 29.3217 164.962 35.0426C164.928 35.5138 164.928 36.3551 164.861 36.8599ZM153.042 33.7638H159.762C159.559 31.9466 158.377 30.8024 156.655 30.8024C154.427 30.7688 153.414 32.1149 153.042 33.7638Z" fill="black"/>
<path d="M173.031 21.043V39.1817H183.161V43.8594H167.527V21.043H173.031Z" fill="black"/>
<path d="M185.762 20H190.962V24.6777H185.762V20ZM185.762 27.2689H190.962V43.8596H185.762V27.2689Z" fill="black"/>
<path d="M198.421 38.1723C198.489 39.1819 199.232 40.4943 201.46 40.4943C203.452 40.4943 204.229 39.6194 204.229 38.98C204.229 37.9368 202.541 37.9031 200.042 37.5329C194.268 36.7253 193.829 33.8312 193.829 32.0476C193.829 29.4227 196.564 26.7305 201.426 26.7305C205.276 26.7305 208.619 28.615 208.889 32.4177H203.756C203.621 31.4418 202.946 30.6005 201.291 30.6005C199.704 30.6005 198.962 31.2736 198.962 31.8793C198.962 32.4514 199.333 32.9562 201.865 33.1918C206.626 33.6965 209.328 35.1436 209.328 38.8117C209.328 41.8404 206.458 44.2971 201.224 44.2971C196.159 44.2971 193.424 41.8405 193.188 38.0714H198.354V38.1723H198.421Z" fill="black"/>
<path d="M218.515 31.6766V37.7004C218.515 40.1571 221.216 39.7869 222.668 39.4504V43.8589C221.993 44.1617 220.372 44.3636 219.629 44.3636C216.32 44.3636 213.315 43.556 213.315 37.6331V31.6766H210.715V27.2682H213.315V23.1289H218.515V27.2682H222.668V31.6766H218.515Z" fill="black"/>
<path d="M26.1454 25.5664H24.1532H24.0182H21.9922V28.0567V30.4797V36.739V37.4794V38.9265L23.1402 38.489L24.0857 38.1188H27.2935C28.6779 38.1188 29.9948 37.4794 30.8389 36.4025C34.722 31.22 31.1091 25.5664 26.1454 25.5664Z" fill="black"/>
<path d="M26.4175 8C12.7759 8 1.73438 19.038 1.73438 32.6C1.73438 46.162 12.7759 57.2 26.4175 57.2C40.059 57.2 51.1005 46.1956 51.1005 32.6C51.1005 19.0044 40.0252 8 26.4175 8ZM34.859 40.1718C32.698 42.3256 29.7265 43.638 26.4512 43.638H22.7032H16.8954V38.0854V25.533L22.7032 20.0476H28.3759C30.8746 20.4514 33.1369 21.6629 34.859 23.3792C37.02 25.533 38.3369 28.4944 38.3369 31.7587C38.3369 35.0566 37.02 38.0181 34.859 40.1718Z" fill="black"/>
</svg>
