<svg width="11" height="5" viewBox="0 0 11 5" fill="none" xmlns="http://www.w3.org/2000/svg">
<path d="M5.22063 4.7721L1.20117 1.10814C0.726808 0.677051 1.11233 2.4576e-07 1.83224 2.4576e-07H9.87117C10.0323 -0.000109918 10.19 0.0368186 10.3255 0.106364C10.461 0.175909 10.5685 0.275122 10.635 0.392123C10.7016 0.509124 10.7245 0.638953 10.701 0.766061C10.6774 0.89317 10.6084 1.01217 10.5023 1.10881L6.48279 4.77143C6.40412 4.84322 6.30711 4.90076 6.19827 4.94018C6.08942 4.9796 5.97126 5 5.85171 5C5.73216 5 5.614 4.9796 5.50515 4.94018C5.39631 4.90076 5.29929 4.84322 5.22063 4.77143V4.7721Z" fill="white"/>
</svg>
