<svg width="13" height="12" viewBox="0 0 13 12" fill="none" xmlns="http://www.w3.org/2000/svg">
<path d="M4.75001 12C4.63889 11.9996 4.52902 11.971 4.42725 11.9162C4.32547 11.8613 4.23396 11.7813 4.15839 11.6812L0.219678 6.52999C0.072444 6.33709 -0.00642895 6.08018 0.000410417 5.81578C0.00724979 5.55138 0.0992413 5.30116 0.256148 5.12014C0.413055 4.93913 0.622024 4.84216 0.837084 4.85057C1.05214 4.85898 1.25568 4.97208 1.40291 5.16498L4.74191 9.53899L11.5577 0.372494C11.6268 0.266604 11.7129 0.179215 11.8105 0.115696C11.9082 0.0521772 12.0153 0.0138686 12.1254 0.00312352C12.2356 -0.00762156 12.3463 0.00942381 12.4509 0.0532125C12.5554 0.0970011 12.6516 0.166608 12.7335 0.25776C12.8154 0.348911 12.8813 0.459681 12.9271 0.583267C12.9729 0.706853 12.9976 0.840645 12.9998 0.976426C13.002 1.11221 12.9817 1.24711 12.9399 1.37285C12.8982 1.49859 12.836 1.61251 12.7571 1.70762L5.34973 11.6712C5.27488 11.7732 5.18369 11.855 5.08187 11.9116C4.98006 11.9682 4.86984 11.9983 4.75811 12H4.75001Z" fill="#28BC83"/>
</svg>
