<svg width="367" height="55" viewBox="0 0 367 55" fill="none" xmlns="http://www.w3.org/2000/svg">
	<path d="M86.7367 27.35C86.7367 29.43 86.2867 31.28 85.3867 32.9C84.5067 34.5 83.2267 35.75 81.5467 36.65C79.8867 37.55 77.9267 38 75.6667 38H67.6567V16.79H75.6667C77.9467 16.79 79.9167 17.23 81.5767 18.11C83.2367 18.99 84.5067 20.23 85.3867 21.83C86.2867 23.43 86.7367 25.27 86.7367 27.35ZM75.2167 33.41C77.2167 33.41 78.7667 32.88 79.8667 31.82C80.9867 30.76 81.5467 29.27 81.5467 27.35C81.5467 25.43 80.9867 23.94 79.8667 22.88C78.7667 21.82 77.2167 21.29 75.2167 21.29H72.7867V33.41H75.2167ZM105.559 29.18C105.559 29.6 105.509 30.06 105.409 30.56H93.7987C93.8587 31.82 94.1787 32.73 94.7587 33.29C95.3387 33.83 96.0787 34.1 96.9787 34.1C97.7387 34.1 98.3687 33.91 98.8687 33.53C99.3687 33.15 99.6987 32.66 99.8587 32.06H105.289C105.069 33.24 104.589 34.3 103.849 35.24C103.109 36.16 102.169 36.89 101.029 37.43C99.8887 37.95 98.6187 38.21 97.2187 38.21C95.5787 38.21 94.1187 37.87 92.8387 37.19C91.5787 36.49 90.5887 35.49 89.8687 34.19C89.1487 32.89 88.7887 31.37 88.7887 29.63C88.7887 27.87 89.1387 26.35 89.8387 25.07C90.5587 23.77 91.5587 22.78 92.8387 22.1C94.1187 21.4 95.5787 21.05 97.2187 21.05C98.8787 21.05 100.339 21.39 101.599 22.07C102.859 22.75 103.829 23.71 104.509 24.95C105.209 26.17 105.559 27.58 105.559 29.18ZM100.369 28.4C100.389 27.3 100.089 26.48 99.4687 25.94C98.8687 25.38 98.1187 25.1 97.2187 25.1C96.2787 25.1 95.4987 25.38 94.8787 25.94C94.2587 26.5 93.9087 27.32 93.8287 28.4H100.369ZM115.973 32.99L119.603 21.26H125.063L119.123 38H112.763L106.823 21.26H112.283L115.973 32.99ZM126.708 16.55C126.708 15.77 126.988 15.13 127.548 14.63C128.108 14.11 128.848 13.85 129.768 13.85C130.688 13.85 131.428 14.11 131.988 14.63C132.548 15.13 132.828 15.77 132.828 16.55C132.828 17.31 132.548 17.95 131.988 18.47C131.428 18.97 130.688 19.22 129.768 19.22C128.848 19.22 128.108 18.97 127.548 18.47C126.988 17.95 126.708 17.31 126.708 16.55ZM132.318 21.26V38H127.188V21.26H132.318ZM143.42 21.05C145.58 21.05 147.39 21.65 148.85 22.85C150.31 24.03 151.23 25.66 151.61 27.74H146.18C146.02 27.02 145.69 26.46 145.19 26.06C144.69 25.66 144.06 25.46 143.3 25.46C142.4 25.46 141.66 25.82 141.08 26.54C140.5 27.24 140.21 28.27 140.21 29.63C140.21 30.99 140.5 32.03 141.08 32.75C141.66 33.45 142.4 33.8 143.3 33.8C144.06 33.8 144.69 33.6 145.19 33.2C145.69 32.8 146.02 32.24 146.18 31.52H151.61C151.23 33.6 150.31 35.24 148.85 36.44C147.39 37.62 145.58 38.21 143.42 38.21C141.78 38.21 140.32 37.87 139.04 37.19C137.78 36.49 136.79 35.49 136.07 34.19C135.35 32.89 134.99 31.37 134.99 29.63C134.99 27.87 135.34 26.35 136.04 25.07C136.76 23.77 137.76 22.78 139.04 22.1C140.32 21.4 141.78 21.05 143.42 21.05ZM170.188 29.18C170.188 29.6 170.138 30.06 170.038 30.56H158.428C158.488 31.82 158.808 32.73 159.388 33.29C159.968 33.83 160.708 34.1 161.608 34.1C162.368 34.1 162.998 33.91 163.498 33.53C163.998 33.15 164.328 32.66 164.488 32.06H169.918C169.698 33.24 169.218 34.3 168.478 35.24C167.738 36.16 166.798 36.89 165.658 37.43C164.518 37.95 163.248 38.21 161.848 38.21C160.208 38.21 158.748 37.87 157.468 37.19C156.208 36.49 155.218 35.49 154.498 34.19C153.778 32.89 153.418 31.37 153.418 29.63C153.418 27.87 153.768 26.35 154.468 25.07C155.188 23.77 156.188 22.78 157.468 22.1C158.748 21.4 160.208 21.05 161.848 21.05C163.508 21.05 164.968 21.39 166.228 22.07C167.488 22.75 168.458 23.71 169.138 24.95C169.838 26.17 170.188 27.58 170.188 29.18ZM164.998 28.4C165.018 27.3 164.718 26.48 164.098 25.94C163.498 25.38 162.748 25.1 161.848 25.1C160.908 25.1 160.128 25.38 159.508 25.94C158.888 26.5 158.538 27.32 158.458 28.4H164.998ZM177.992 34.07H184.832V38H172.862V16.79H177.992V34.07ZM186.708 16.55C186.708 15.77 186.988 15.13 187.548 14.63C188.108 14.11 188.848 13.85 189.768 13.85C190.688 13.85 191.428 14.11 191.988 14.63C192.548 15.13 192.828 15.77 192.828 16.55C192.828 17.31 192.548 17.95 191.988 18.47C191.428 18.97 190.688 19.22 189.768 19.22C188.848 19.22 188.108 18.97 187.548 18.47C186.988 17.95 186.708 17.31 186.708 16.55ZM192.318 21.26V38H187.188V21.26H192.318ZM201.95 21.05C204.07 21.05 205.76 21.58 207.02 22.64C208.3 23.7 209.1 25.1 209.42 26.84H204.62C204.48 26.16 204.16 25.63 203.66 25.25C203.18 24.85 202.57 24.65 201.83 24.65C201.25 24.65 200.81 24.78 200.51 25.04C200.21 25.28 200.06 25.63 200.06 26.09C200.06 26.61 200.33 27 200.87 27.26C201.43 27.52 202.3 27.78 203.48 28.04C204.76 28.34 205.81 28.65 206.63 28.97C207.45 29.27 208.16 29.77 208.76 30.47C209.36 31.17 209.66 32.11 209.66 33.29C209.66 34.25 209.4 35.1 208.88 35.84C208.36 36.58 207.61 37.16 206.63 37.58C205.65 38 204.49 38.21 203.15 38.21C200.89 38.21 199.08 37.71 197.72 36.71C196.36 35.71 195.53 34.28 195.23 32.42H200.18C200.26 33.14 200.56 33.69 201.08 34.07C201.62 34.45 202.31 34.64 203.15 34.64C203.73 34.64 204.17 34.51 204.47 34.25C204.77 33.97 204.92 33.61 204.92 33.17C204.92 32.59 204.64 32.18 204.08 31.94C203.54 31.68 202.65 31.41 201.41 31.13C200.17 30.87 199.15 30.59 198.35 30.29C197.55 29.99 196.86 29.51 196.28 28.85C195.7 28.17 195.41 27.25 195.41 26.09C195.41 24.59 195.98 23.38 197.12 22.46C198.26 21.52 199.87 21.05 201.95 21.05ZM221.98 33.59V38H219.67C217.71 38 216.18 37.52 215.08 36.56C214 35.58 213.46 33.97 213.46 31.73V25.58H211.21V21.26H213.46V17.15H218.59V21.26H221.95V25.58H218.59V31.82C218.59 32.48 218.72 32.94 218.98 33.2C219.26 33.46 219.72 33.59 220.36 33.59H221.98ZM240.56 16.58C243.26 16.58 245.49 17.29 247.25 18.71C249.03 20.13 250.18 22.05 250.7 24.47H245.27C244.87 23.49 244.25 22.72 243.41 22.16C242.59 21.6 241.61 21.32 240.47 21.32C238.97 21.32 237.76 21.87 236.84 22.97C235.92 24.07 235.46 25.54 235.46 27.38C235.46 29.22 235.92 30.69 236.84 31.79C237.76 32.87 238.97 33.41 240.47 33.41C241.61 33.41 242.59 33.13 243.41 32.57C244.25 32.01 244.87 31.25 245.27 30.29H250.7C250.18 32.69 249.03 34.61 247.25 36.05C245.49 37.47 243.26 38.18 240.56 38.18C238.5 38.18 236.69 37.73 235.13 36.83C233.57 35.91 232.36 34.63 231.5 32.99C230.66 31.35 230.24 29.48 230.24 27.38C230.24 25.28 230.66 23.41 231.5 21.77C232.36 20.13 233.57 18.86 235.13 17.96C236.69 17.04 238.5 16.58 240.56 16.58ZM269.475 29.18C269.475 29.6 269.425 30.06 269.325 30.56H257.715C257.775 31.82 258.095 32.73 258.675 33.29C259.255 33.83 259.995 34.1 260.895 34.1C261.655 34.1 262.285 33.91 262.785 33.53C263.285 33.15 263.615 32.66 263.775 32.06H269.205C268.985 33.24 268.505 34.3 267.765 35.24C267.025 36.16 266.085 36.89 264.945 37.43C263.805 37.95 262.535 38.21 261.135 38.21C259.495 38.21 258.035 37.87 256.755 37.19C255.495 36.49 254.505 35.49 253.785 34.19C253.065 32.89 252.705 31.37 252.705 29.63C252.705 27.87 253.055 26.35 253.755 25.07C254.475 23.77 255.475 22.78 256.755 22.1C258.035 21.4 259.495 21.05 261.135 21.05C262.795 21.05 264.255 21.39 265.515 22.07C266.775 22.75 267.745 23.71 268.425 24.95C269.125 26.17 269.475 27.58 269.475 29.18ZM264.285 28.4C264.305 27.3 264.005 26.48 263.385 25.94C262.785 25.38 262.035 25.1 261.135 25.1C260.195 25.1 259.415 25.38 258.795 25.94C258.175 26.5 257.825 27.32 257.745 28.4H264.285ZM277.279 24.41C277.919 23.39 278.739 22.58 279.739 21.98C280.759 21.38 281.859 21.08 283.039 21.08V26.57H281.569C280.209 26.57 279.149 26.86 278.389 27.44C277.649 28.02 277.279 29 277.279 30.38V38H272.149V21.26H277.279V24.41ZM294.666 33.59V38H292.356C290.396 38 288.866 37.52 287.766 36.56C286.686 35.58 286.146 33.97 286.146 31.73V25.58H283.896V21.26H286.146V17.15H291.276V21.26H294.636V25.58H291.276V31.82C291.276 32.48 291.406 32.94 291.666 33.2C291.946 33.46 292.406 33.59 293.046 33.59H294.666ZM297.069 16.55C297.069 15.77 297.349 15.13 297.909 14.63C298.469 14.11 299.209 13.85 300.129 13.85C301.049 13.85 301.789 14.11 302.349 14.63C302.909 15.13 303.189 15.77 303.189 16.55C303.189 17.31 302.909 17.95 302.349 18.47C301.789 18.97 301.049 19.22 300.129 19.22C299.209 19.22 298.469 18.97 297.909 18.47C297.349 17.95 297.069 17.31 297.069 16.55ZM302.679 21.26V38H297.549V21.26H302.679ZM314.441 18.98C313.601 18.98 312.991 19.16 312.611 19.52C312.231 19.88 312.021 20.46 311.981 21.26H315.011V25.58H311.981V38H306.851V25.58H304.841V21.26H306.851V21.08C306.851 19 307.451 17.4 308.651 16.28C309.871 15.14 311.631 14.57 313.931 14.57C314.411 14.57 314.771 14.58 315.011 14.6V19.01L314.441 18.98ZM316.786 16.55C316.786 15.77 317.066 15.13 317.626 14.63C318.186 14.11 318.926 13.85 319.846 13.85C320.766 13.85 321.506 14.11 322.066 14.63C322.626 15.13 322.906 15.77 322.906 16.55C322.906 17.31 322.626 17.95 322.066 18.47C321.506 18.97 320.766 19.22 319.846 19.22C318.926 19.22 318.186 18.97 317.626 18.47C317.066 17.95 316.786 17.31 316.786 16.55ZM322.396 21.26V38H317.266V21.26H322.396ZM341.838 29.18C341.838 29.6 341.788 30.06 341.688 30.56H330.078C330.138 31.82 330.458 32.73 331.038 33.29C331.618 33.83 332.358 34.1 333.258 34.1C334.018 34.1 334.648 33.91 335.148 33.53C335.648 33.15 335.978 32.66 336.138 32.06H341.568C341.348 33.24 340.868 34.3 340.128 35.24C339.388 36.16 338.448 36.89 337.308 37.43C336.168 37.95 334.898 38.21 333.498 38.21C331.858 38.21 330.398 37.87 329.118 37.19C327.858 36.49 326.868 35.49 326.148 34.19C325.428 32.89 325.068 31.37 325.068 29.63C325.068 27.87 325.418 26.35 326.118 25.07C326.838 23.77 327.838 22.78 329.118 22.1C330.398 21.4 331.858 21.05 333.498 21.05C335.158 21.05 336.618 21.39 337.878 22.07C339.138 22.75 340.108 23.71 340.788 24.95C341.488 26.17 341.838 27.58 341.838 29.18ZM336.648 28.4C336.668 27.3 336.368 26.48 335.748 25.94C335.148 25.38 334.398 25.1 333.498 25.1C332.558 25.1 331.778 25.38 331.158 25.94C330.538 26.5 330.188 27.32 330.108 28.4H336.648ZM350.872 21.05C352.152 21.05 353.252 21.34 354.172 21.92C355.092 22.5 355.762 23.29 356.182 24.29V15.8H361.312V38H356.182V34.97C355.762 35.97 355.092 36.76 354.172 37.34C353.252 37.92 352.152 38.21 350.872 38.21C349.492 38.21 348.252 37.87 347.152 37.19C346.072 36.49 345.212 35.49 344.572 34.19C343.952 32.89 343.642 31.37 343.642 29.63C343.642 27.87 343.952 26.35 344.572 25.07C345.212 23.77 346.072 22.78 347.152 22.1C348.252 21.4 349.492 21.05 350.872 21.05ZM352.522 25.55C351.422 25.55 350.532 25.91 349.852 26.63C349.192 27.35 348.862 28.35 348.862 29.63C348.862 30.91 349.192 31.91 349.852 32.63C350.532 33.35 351.422 33.71 352.522 33.71C353.602 33.71 354.482 33.34 355.162 32.6C355.862 31.86 356.212 30.87 356.212 29.63C356.212 28.37 355.862 27.38 355.162 26.66C354.482 25.92 353.602 25.55 352.522 25.55Z" fill="#000000" />
	<path d="M41.7797 7.64049C37.7653 3.68156 32.5237 0.932997 26.694 0H13.526L0 12.5829V41.4805V54.2147H13.526H22.2194C29.8645 54.2147 36.7937 51.1635 41.7797 46.2212C46.7912 41.2788 49.885 34.4705 49.885 26.9308C49.885 19.3912 46.7912 12.5829 41.7797 7.64049ZM32.3703 37.572C30.4271 40.0937 27.3588 41.531 24.1371 41.531H16.6965L11.8384 43.3465V40.018V38.3033V23.9301V18.3826V12.6333H16.5431H21.5291C33.0607 12.6333 41.4728 25.6952 32.3703 37.572Z" fill="#000000" />
	<path d="M11.864 43.3457V40.0172V38.3025V23.9293V18.3817V12.6325V12.582H0V54.2139H13.526L14.4976 42.3623L11.864 43.3457Z" fill="#000000" />
	<defs>
		<linearGradient id="paint0_linear" x1="20.4796" y1="52.2399" x2="26.7785" y2="6.523" gradientUnits="userSpaceOnUse">
			<stop offset="0.1369" stop-color="#0247D1" />
			<stop offset="0.3607" stop-color="#000000" />
		</linearGradient>
		<linearGradient id="paint1_linear" x1="7.64545" y1="52.4522" x2="4.19005" y2="12.8274" gradientUnits="userSpaceOnUse">
			<stop offset="0.1628" stop-color="#0247D1" />
			<stop offset="0.5912" stop-color="#0840B2" />
			<stop offset="0.6785" stop-color="#073EAB" />
			<stop offset="0.8088" stop-color="#063796" />
			<stop offset="0.9653" stop-color="#042C75" />
			<stop offset="1" stop-color="#03296D" />
		</linearGradient>
	</defs>
</svg>
